<svg width="128" height="128" viewBox="0 0 128 128" fill="none" xmlns="http://www.w3.org/2000/svg">
<path fill-rule="evenodd" clip-rule="evenodd" d="M17.8254 55.244L13.7118 22.5811C14.0256 22.4094 14.3706 22.2244 14.7463 22.0281C17.0617 20.8177 20.5364 19.1771 25.0647 17.5281C34.1206 14.2305 47.3731 10.9051 64 10.9051C80.6269 10.9051 93.8794 14.2305 102.935 17.5281C107.464 19.1771 110.938 20.8177 113.254 22.0281C113.629 22.2244 113.974 22.4094 114.288 22.5811L110.175 55.244C106.395 57.3734 100.543 61.8561 100.543 71.0144C100.543 76.4621 102.771 80.5758 104.919 83.2556C105.625 84.137 106.331 84.8758 106.966 85.4734L103.585 104.321L64 116.656L24.4151 104.321L21.0344 85.4734C21.6685 84.8758 22.3751 84.137 23.0814 83.2556C25.229 80.5758 27.4566 76.4621 27.4566 71.0144C27.4566 61.8561 21.6052 57.3734 17.8254 55.244ZM121.708 16.5737L121.696 16.5656L121.673 16.5505L121.605 16.5056C121.549 16.4692 121.473 16.4202 121.376 16.3593C121.184 16.2376 120.912 16.0686 120.561 15.859C119.859 15.4399 118.842 14.8584 117.524 14.1694C114.888 12.7917 111.043 10.9816 106.095 9.17982C96.1986 5.57602 81.8735 2 64 2C46.1265 2 31.8014 5.57602 21.9048 9.17982C16.9569 10.9816 13.1116 12.7917 10.4761 14.1694C9.15807 14.8584 8.14138 15.4399 7.4394 15.859C7.08837 16.0686 6.81588 16.2376 6.62361 16.3593C6.52746 16.4202 6.45136 16.4692 6.39549 16.5056L6.3269 16.5505L6.30404 16.5656L6.29547 16.5713L6.29191 16.5737L6.28882 16.5758L4 18.1053L9.40573 61.0275L11.5962 62.0918C14.5532 63.5287 18.3776 65.5274 18.3776 71.0144C18.3776 73.9528 17.2006 76.1839 15.9435 77.7524C15.3127 78.5396 14.6823 79.1309 14.2245 79.5142C13.9976 79.7041 13.8196 79.8376 13.7142 79.9136C13.6668 79.9477 13.6346 79.9697 13.6199 79.9797L11.1146 81.5632L16.4261 111.175L64 126L111.574 111.175L116.885 81.5632L114.38 79.9797C114.365 79.9697 114.333 79.9477 114.286 79.9136C114.18 79.8376 114.002 79.7041 113.776 79.5142C113.318 79.1309 112.687 78.5396 112.056 77.7524C110.799 76.1839 109.622 73.9528 109.622 71.0144C109.622 65.5274 113.447 63.5287 116.404 62.0918L118.594 61.0275L124 18.1053L121.711 16.5758L121.708 16.5737ZM47.3019 31.7326L43 24L69.717 24C82.8491 24 86.4717 34.1628 83.5283 46.093C81.8902 52.7326 77.1132 59.7907 74.6981 62.4419C78.4717 72.6783 86.2453 93.6372 87.1509 95.5814C88.0566 97.5256 90.0943 99.2636 91 100H71.7547C73.7924 97.3488 74.4717 94.9186 74.4717 94.0349C74.4717 93.3279 68.5849 77.8334 65.6415 70.1744L58.6226 75.6977V94.2558L62.4717 100H43.6792L47.3019 94.2558V31.7326ZM58.849 63.1046V32.502C59.4895 32.502 60.1354 32.4865 60.7799 32.471H60.78C63.7809 32.3987 66.7545 32.3272 69.0377 33.8276C71.8113 35.6503 73.1132 40.1051 72.2075 44.9655C70.543 53.8985 63.9074 59.1194 59.8557 62.3073C59.4983 62.5885 59.161 62.8539 58.849 63.1046Z" fill="url(#paint0_linear)"/>
<defs>
<linearGradient id="paint0_linear" x1="38.2987" y1="123.915" x2="117.722" y2="54.7528" gradientUnits="userSpaceOnUse">
<stop stop-color="#AF893D"/>
<stop offset="0.234375" stop-color="#D29D40"/>
<stop offset="0.53125" stop-color="#FFCC74"/>
<stop offset="0.822917" stop-color="#E8B55D"/>
</linearGradient>
</defs>
</svg>
